Coordinates
version=1
nRows=8
nColumns=40
inDegrees=yes

Units are S.I. units (second, meters, Newtons, ...)
If the header above contains a line with 'inDegrees', this indicates whether rotational values are in degrees (yes) or radians (no).

endheader
time	pelvis_tilt	pelvis_list	pelvis_rotation	pelvis_tx	pelvis_ty	pelvis_tz	hip_flexion_r	hip_adduction_r	hip_rotation_r	knee_angle_r	knee_angle_r_beta	ankle_angle_r	subtalar_angle_r	mtp_angle_r	hip_flexion_l	hip_adduction_l	hip_rotation_l	knee_angle_l	knee_angle_l_beta	ankle_angle_l	subtalar_angle_l	mtp_angle_l	lumbar_extension	lumbar_bending	lumbar_rotation	arm_flex_r	arm_add_r	arm_rot_r	elbow_flex_r	pro_sup_r	wrist_flex_r	wrist_dev_r	arm_flex_l	arm_add_l	arm_rot_l	elbow_flex_l	pro_sup_l	wrist_flex_l	wrist_dev_l
      1.70000000	     -4.18152364	      0.33266262	      0.19577869	     -0.30502122	      0.96708326	     -0.80338483	     13.47812310	      4.36466177	     -8.91775609	     19.20533575	      0.33519634	     -5.59004245	      0.00000000	      0.00000000	     13.94258658	     -8.82331026	      0.48608194	     81.41922050	      1.42103347	    -11.67112236	      0.00000000	      0.00000000	     -5.97583765	      2.67033194	     -2.29903738	     77.16711193	    -19.98663290	     44.29937120	     68.10909703	     86.82761191	      0.00000000	      0.00000000	     76.43174474	    -12.09424608	     39.57550050	     62.50724239	     82.92357748	      0.00000000	      0.00000000
      1.70500000	     -4.35045903	      0.35853281	      0.21234182	     -0.30525700	      0.96663416	     -0.80344814	     13.81664910	      4.28166790	     -9.09753534	     19.51934390	      0.34067682	     -5.42560984	      0.00000000	      0.00000000	     14.10995339	     -8.76687546	      0.51341007	     81.58104879	      1.42385791	    -11.82327331	      0.00000000	      0.00000000	     -5.81573952	      2.64576844	     -2.30031952	     77.08862222	    -19.93262916	     43.91100375	     68.01933956	     87.26484544	      0.00000000	      0.00000000	     76.46728890	    -11.97565347	     39.53581789	     62.36500352	     81.49519507	      0.00000000	      0.00000000
      1.71000000	     -4.46186759	      0.34068472	      0.22810434	     -0.30555563	      0.96628891	     -0.80345402	     14.02916707	      4.27820565	     -9.13315828	     19.66378535	      0.34319780	     -5.42582647	      0.00000000	      0.00000000	     14.22794825	     -8.78949764	      0.52243377	     81.77635090	      1.42726657	    -11.84451769	      0.00000000	      0.00000000	     -5.76618566	      2.68726439	     -2.27516978	     77.13833803	    -19.97092124	     43.85619063	     68.08755302	     87.21293096	      0.00000000	      0.00000000	     76.55950651	    -11.95631902	     39.62986886	     62.32074798	     81.23084739	      0.00000000	      0.00000000
      1.71500000	     -4.62626363	      0.35407837	      0.29304509	     -0.30590372	      0.96583595	     -0.80356778	     14.32484821	      4.21462412	     -9.22034794	     19.88408932	      0.34704283	     -5.23464779	      0.00000000	      0.00000000	     14.45819367	     -8.74827023	      0.59447597	     82.02335647	      1.43157763	    -11.74228287	      0.00000000	      0.00000000	     -5.65591087	      2.72143977	     -2.32967903	     77.30917514	    -20.04048201	     44.10014777	     68.16099721	     87.08361621	      0.00000000	      0.00000000	     76.54742741	    -11.92489669	     39.37432085	     62.27890217	     83.20371300	      0.00000000	      0.00000000
      1.72000000	     -4.67764697	      0.37346640	      0.31787374	     -0.30625196	      0.96554304	     -0.80359968	     14.50653386	      4.16530345	     -9.27553040	     20.09457233	      0.35071645	     -5.20809500	      0.00000000	      0.00000000	     14.54043667	     -8.72974035	      0.58771981	     82.22413606	      1.43508190	    -11.72390364	      0.00000000	      0.00000000	     -5.68338164	      2.68463532	     -2.20121197	     77.33732570	    -20.24222612	     44.01874832	     68.22752878	     87.07699129	      0.00000000	      0.00000000	     76.73818783	    -11.68890686	     39.42891523	     62.09799430	     83.76742903	      0.00000000	      0.00000000
      1.72500000	     -4.80118193	      0.36402008	      0.36722136	     -0.30666603	      0.96510360	     -0.80361812	     14.77037953	      4.13866093	     -9.39957534	     20.31642134	      0.35458844	     -5.10057830	      0.00000000	      0.00000000	     14.72236935	     -8.74822080	      0.59640444	     82.45445197	      1.43910167	    -11.51560223	      0.00000000	      0.00000000	     -5.61665939	      2.74029909	     -2.32970718	     77.47817294	    -20.07992798	     44.05388955	     68.02627091	     87.22982151	      0.00000000	      0.00000000	     76.81383884	    -11.81477844	     39.49703456	     62.15044912	     81.81454493	      0.00000000	      0.00000000
      1.73000000	     -4.91198046	      0.36263666	      0.39318913	     -0.30705305	      0.96465149	     -0.80365248	     15.02365822	      4.10578996	     -9.48110491	     20.54779751	      0.35862672	     -4.99003972	      0.00000000	      0.00000000	     14.88707377	     -8.74719976	      0.61978094	     82.67913102	      1.44302306	    -11.44141809	      0.00000000	      0.00000000	     -5.59034296	      2.77008014	     -2.28334365	     77.60190460	    -20.16643137	     44.10029259	     68.03932964	     86.98493559	      0.00000000	      0.00000000	     76.90653940	    -11.73729317	     39.36805069	     62.10797235	     84.15777566	      0.00000000	      0.00000000
      1.73500000	     -5.06712743	      0.36266646	      0.41436895	     -0.30755551	      0.96407546	     -0.80367959	     15.37268234	      4.07335558	     -9.49738512	     20.87053810	      0.36425961	     -4.82738192	      0.00000000	      0.00000000	     15.13365824	     -8.76105745	      0.61617319	     82.95395454	      1.44781963	    -11.35234022	      0.00000000	      0.00000000	     -5.50648137	      2.80721556	     -2.24012567	     77.83027914	    -20.31801176	     44.43084213	     68.11234527	     87.15819707	      0.00000000	      0.00000000	     77.00559536	    -11.74024298	     39.56495410	     62.19024517	     81.66380428	      0.00000000	      0.00000000
